<svg id="Layer_1" data-name="Layer 1" xmlns="http://www.w3.org/2000/svg" viewBox="0 0 481.39 481.39"><defs><style>.cls-1{fill:#f04600;}</style></defs><title>M</title><path class="cls-1" d="M303.7,246.69l26.43-63.59v63.59l13.4,3.59,31.79-55.07-8.78,68.35,10.42,6,54.69-41.85L399.86,282.8l9.8,9.8,55.07-31.79-41.79,54.8L429,326l68.29-8.9-55.07,31.8,3.59,13.4h63.59l-63.59,26.56v12l63.59,26.44H445.77l-3.59,13.4,55.07,31.79-68.36-8.78-6,10.42,41.85,54.69-55.07-31.79-9.81,9.8L431.64,562l-54.8-41.78-10.42,6,8.9,68.29-31.79-55.07L330.13,543v63.58L303.56,543h-12l-26.44,63.58V543l-13.39-3.59-31.79,55.07,8.78-68.36-10.42-6L163.58,562l31.79-55.07-9.81-9.81-55.06,31.8,41.78-54.81-6-10.42L98,472.55,153,440.76l-3.58-13.4H85.87l63.59-26.57v-12L85.87,362.32h63.59l3.59-13.39L98,317.13l68.35,8.79,6-10.42L130.5,260.81l55.07,31.79,9.8-9.8-31.79-55.07,54.8,41.78,10.42-6-8.89-68.29,31.79,55.06,13.39-3.58V183.1l26.57,63.59Zm23.39-92.54-29.48,70.33-29.48-70.33H250.29v64.07l-32-55.49-15.46,8.93,9.64,75.64-60.69-46.17-15.46,8.93,32,55.49-55.48-32L103.91,249l46.16,60.69L74.43,300,65.5,315.48l55.49,32H56.92v17.84l70.33,29.48L56.92,424.32v17.85H121l-55.49,32,8.93,15.46L150.07,480l-46.16,60.69,8.92,15.45,55.48-32-32,55.49,15.45,8.92,60.7-46.17L202.79,618,218.25,627l32-55.49v64.08h17.85l29.48-70.33,29.48,70.33h17.85V571.47L377,627,392.43,618l-9.64-75.65,60.7,46.17,15.45-8.92-32-55.49,55.49,32,8.92-15.46L445.15,480l75.65,9.63,8.92-15.46-55.48-32h64.07V424.32L468,394.84l70.33-29.48V347.52H474.24l55.48-32L520.8,300l-75.65,9.63L491.32,249l-8.92-15.46-55.49,32,32-55.49-15.45-8.92-60.7,46.16,9.64-75.64L377,162.73l-32,55.49V154.15Z" transform="translate(-56.92 -154.15)"/></svg>