<svg id="Layer_1" data-name="Layer 1" xmlns="http://www.w3.org/2000/svg" viewBox="0 0 489.67 489.67"><defs><style>.cls-1{fill:#f04600;}</style></defs><title>O</title><path class="cls-1" d="M296.48,152a46.7,46.7,0,1,0,46.7,46.69A46.7,46.7,0,0,0,296.48,152m0,25a21.74,21.74,0,1,1-21.74,21.73A21.76,21.76,0,0,1,296.48,177" transform="translate(-51.64 -152.01)"/><path class="cls-1" d="M174.06,184.81a46.7,46.7,0,1,0,63.79,17.09,46.69,46.69,0,0,0-63.79-17.09m12.48,21.61a21.74,21.74,0,1,1-8,29.7,21.77,21.77,0,0,1,8-29.7" transform="translate(-51.64 -152.01)"/><path class="cls-1" d="M84.45,274.42a46.7,46.7,0,1,0,63.78-17.09,46.7,46.7,0,0,0-63.78,17.09m21.61,12.48a21.74,21.74,0,1,1,8,29.7,21.75,21.75,0,0,1-8-29.7" transform="translate(-51.64 -152.01)"/><path class="cls-1" d="M51.64,396.84a46.7,46.7,0,1,0,46.7-46.69,46.7,46.7,0,0,0-46.7,46.69m25,0a21.74,21.74,0,1,1,21.74,21.74A21.77,21.77,0,0,1,76.6,396.84" transform="translate(-51.64 -152.01)"/><path class="cls-1" d="M84.45,519.27a46.7,46.7,0,1,0,17.09-63.8,46.69,46.69,0,0,0-17.09,63.8m21.61-12.48a21.74,21.74,0,1,1,29.69,7.95,21.76,21.76,0,0,1-29.69-7.95" transform="translate(-51.64 -152.01)"/><path class="cls-1" d="M174.06,608.88A46.7,46.7,0,1,0,157,545.09a46.69,46.69,0,0,0,17.09,63.79m12.48-21.61a21.74,21.74,0,1,1,29.7-8,21.77,21.77,0,0,1-29.7,8" transform="translate(-51.64 -152.01)"/><path class="cls-1" d="M296.48,641.68A46.7,46.7,0,1,0,249.78,595a46.7,46.7,0,0,0,46.7,46.69m0-25A21.74,21.74,0,1,1,318.22,595a21.76,21.76,0,0,1-21.74,21.73" transform="translate(-51.64 -152.01)"/><path class="cls-1" d="M418.9,608.88a46.7,46.7,0,1,0-63.79-17.09,46.69,46.69,0,0,0,63.79,17.09m-12.48-21.61a21.74,21.74,0,1,1,8-29.7,21.77,21.77,0,0,1-8,29.7" transform="translate(-51.64 -152.01)"/><path class="cls-1" d="M508.51,519.27a46.7,46.7,0,1,0-63.79,17.09,46.71,46.71,0,0,0,63.79-17.09M486.9,506.79a21.74,21.74,0,1,1-7.95-29.7,21.76,21.76,0,0,1,7.95,29.7" transform="translate(-51.64 -152.01)"/><path class="cls-1" d="M541.32,396.84a46.7,46.7,0,1,0-46.7,46.7,46.69,46.69,0,0,0,46.7-46.7m-25,0a21.74,21.74,0,1,1-21.74-21.74,21.76,21.76,0,0,1,21.74,21.74" transform="translate(-51.64 -152.01)"/><path class="cls-1" d="M508.51,274.42a46.7,46.7,0,1,0-17.08,63.8,46.7,46.7,0,0,0,17.08-63.8M486.9,286.9A21.74,21.74,0,1,1,457.2,279a21.78,21.78,0,0,1,29.7,7.95" transform="translate(-51.64 -152.01)"/><path class="cls-1" d="M418.9,184.81A46.7,46.7,0,1,0,436,248.6a46.69,46.69,0,0,0-17.09-63.79m-12.48,21.61a21.74,21.74,0,1,1-29.7,8,21.77,21.77,0,0,1,29.7-8" transform="translate(-51.64 -152.01)"/></svg>