<svg id="Layer_1" data-name="Layer 1" xmlns="http://www.w3.org/2000/svg" viewBox="0 0 487.89 487.89"><defs><style>.cls-1{fill:#f04600;}</style></defs><title>U</title><polygon class="cls-1" points="249.13 0.01 229.71 43.37 238.7 43.37 258.19 0.01 249.13 0.01"/><path class="cls-1" d="M326.84,195.76h0a31.25,31.25,0,0,1-62.5,0V148.45H250.12v47.31a45.47,45.47,0,0,0,90.94,0h0V148.45H326.84Z" transform="translate(-51.64 -148.45)"/><polygon class="cls-1" points="134.31 25.57 139.12 72.86 131.32 77.36 126.46 30.1 134.31 25.57"/><path class="cls-1" d="M224.34,206.48h0a31.25,31.25,0,1,1-54.13,31.25l-23.65-41-12.32,7.12,23.66,41a45.47,45.47,0,0,0,78.76-45.47h0l-23.66-41-12.32,7.11Z" transform="translate(-51.64 -148.45)"/><polygon class="cls-1" points="39.81 109.64 67.62 148.2 63.12 155.99 35.28 117.49 39.81 109.64"/><path class="cls-1" d="M140.93,267h0a31.25,31.25,0,1,1-31.25,54.12l-41-23.66L61.59,309.8l41,23.66A45.47,45.47,0,0,0,148,254.7l-41-23.66L100,243.35Z" transform="translate(-51.64 -148.45)"/><polygon class="cls-1" points="0.01 229.7 43.37 249.19 43.37 258.19 0.01 238.76 0.01 229.7"/><path class="cls-1" d="M99,361.14h0a31.25,31.25,0,1,1,0,62.5H51.64v14.22H99a45.47,45.47,0,0,0,0-90.94H51.64v14.22Z" transform="translate(-51.64 -148.45)"/><polygon class="cls-1" points="25.57 353.58 72.86 348.78 77.36 356.57 30.1 361.43 25.57 353.58"/><path class="cls-1" d="M109.68,463.64h0a31.25,31.25,0,1,1,31.25,54.13l-41,23.66,7.11,12.31,41-23.65a45.47,45.47,0,0,0-45.47-78.76L61.59,475,68.7,487.3Z" transform="translate(-51.64 -148.45)"/><polygon class="cls-1" points="109.64 448.08 148.2 420.27 155.99 424.77 117.49 452.62 109.64 448.08"/><path class="cls-1" d="M170.21,547.05h0a31.25,31.25,0,1,1,54.13,31.25l-23.66,41L213,626.39l23.65-41A45.47,45.47,0,1,0,157.9,540h0l-23.66,41L146.55,588Z" transform="translate(-51.64 -148.45)"/><polygon class="cls-1" points="249.19 444.52 229.7 487.88 238.76 487.88 258.19 444.52 249.19 444.52"/><path class="cls-1" d="M264.34,589h0a31.25,31.25,0,0,1,62.5,0v47.32h14.22V589a45.47,45.47,0,0,0-90.94,0h0v47.32h14.22Z" transform="translate(-51.64 -148.45)"/><polygon class="cls-1" points="353.58 462.33 348.78 415.03 356.57 410.53 361.43 457.8 353.58 462.33"/><path class="cls-1" d="M366.84,578.3h0A31.25,31.25,0,1,1,421,547.05l23.66,41,12.31-7.11-23.66-41a45.47,45.47,0,0,0-78.76,45.47h0l23.66,41,12.32-7.11Z" transform="translate(-51.64 -148.45)"/><polygon class="cls-1" points="448.08 378.25 420.27 339.69 424.77 331.9 452.62 370.4 448.08 378.25"/><path class="cls-1" d="M450.25,517.77h0a31.25,31.25,0,1,1,31.25-54.12l41,23.65L529.59,475l-41-23.66a45.47,45.47,0,0,0-45.47,78.76l41,23.65,7.11-12.31Z" transform="translate(-51.64 -148.45)"/><polygon class="cls-1" points="444.52 238.7 487.88 258.19 487.88 249.13 444.52 229.71 444.52 238.7"/><path class="cls-1" d="M492.22,423.64h0a31.25,31.25,0,0,1,0-62.5h47.32V346.92H492.22a45.48,45.48,0,0,0,0,90.95h47.32V423.64Z" transform="translate(-51.64 -148.45)"/><polygon class="cls-1" points="462.33 134.31 415.03 139.11 410.53 131.33 457.79 126.47 462.33 134.31"/><path class="cls-1" d="M481.5,321.14h0A31.25,31.25,0,1,1,450.25,267l41-23.66L484.12,231l-41,23.66a45.47,45.47,0,0,0,45.47,78.76h0l41-23.66-7.11-12.32Z" transform="translate(-51.64 -148.45)"/><polygon class="cls-1" points="378.25 39.81 339.69 67.62 331.9 63.12 370.4 35.28 378.25 39.81"/><path class="cls-1" d="M421,237.73h0a31.25,31.25,0,0,1-54.13-31.24l23.66-41-12.31-7.11-23.66,41a45.47,45.47,0,1,0,78.75,45.47h0l23.66-41-12.31-7.11Z" transform="translate(-51.64 -148.45)"/></svg>